<mxfile host="65bd71144e">
    <diagram id="lXM9Ic9fI_piGm_xTI94" name="1.0.0">
        <mxGraphModel dx="1374" dy="705" grid="1" gridSize="10" guides="1" tooltips="1" connect="1" arrows="1" fold="1" page="1" pageScale="1" pageWidth="850" pageHeight="1100" background="none" math="0" shadow="0">
            <root>
                <mxCell id="0"/>
                <mxCell id="1" parent="0"/>
                <mxCell id="2" value="Bitcell" style="swimlane;gradientColor=none;" vertex="1" parent="1">
                    <mxGeometry x="325" y="30" width="200" height="280" as="geometry"/>
                </mxCell>
                <mxCell id="3" value="&lt;div&gt;&lt;br&gt;&lt;/div&gt;&lt;div&gt;&lt;li&gt;Mining&lt;/li&gt;&lt;li&gt;Loan &amp;amp; Borrow Screeners&lt;/li&gt;&lt;li&gt;Dashboard (Charts)&lt;/li&gt;&lt;li&gt;IDE (Menu Bar, Left &amp;amp; Right Side Bars, Status Bar, Terminal)&lt;/li&gt;&lt;li&gt;Calendar&lt;/li&gt;&lt;li&gt;Customer&lt;/li&gt;&lt;li&gt;Widgets&lt;/li&gt;&lt;li&gt;Profile&lt;/li&gt;&lt;li&gt;Functions&lt;/li&gt;&lt;li&gt;System&lt;/li&gt;&lt;/div&gt;" style="text;strokeColor=none;fillColor=none;html=1;whiteSpace=wrap;verticalAlign=middle;overflow=hidden;" vertex="1" parent="2">
                    <mxGeometry x="13" y="30" width="175" height="240" as="geometry"/>
                </mxCell>
                <mxCell id="6" value="DASH" style="swimlane;gradientColor=none;" vertex="1" parent="1">
                    <mxGeometry x="50" y="470" width="200" height="420" as="geometry"/>
                </mxCell>
                <mxCell id="7" value="&lt;div&gt;&lt;br&gt;&lt;/div&gt;&lt;ul&gt;&lt;li&gt;&lt;span&gt;Home&lt;/span&gt;&lt;/li&gt;&lt;li&gt;&lt;span&gt;Running Stats&lt;/span&gt;&lt;/li&gt;&lt;li&gt;&lt;span&gt;Inflows and Outflows&lt;/span&gt;&lt;/li&gt;&lt;li&gt;&lt;span&gt;On/Off chain analytics&lt;/span&gt;&lt;/li&gt;&lt;li&gt;&lt;span&gt;Query Blockchains&lt;/span&gt;&lt;/li&gt;&lt;li&gt;&lt;span&gt;Resources&lt;/span&gt;&lt;/li&gt;&lt;li&gt;&lt;span&gt;Widgets&lt;/span&gt;&lt;/li&gt;&lt;li&gt;&lt;span&gt;Users&lt;/span&gt;&lt;/li&gt;&lt;li&gt;&lt;span&gt;Customer&lt;/span&gt;&lt;/li&gt;&lt;li&gt;&lt;span&gt;Kanban&lt;/span&gt;&lt;/li&gt;&lt;li&gt;&lt;span&gt;Calendar&lt;/span&gt;&lt;/li&gt;&lt;li&gt;&lt;span&gt;E-commerce&lt;/span&gt;&lt;/li&gt;&lt;li&gt;&lt;span&gt;Authentication&lt;/span&gt;&lt;/li&gt;&lt;li&gt;&lt;span&gt;Pricing&lt;/span&gt;&lt;/li&gt;&lt;li&gt;&lt;span&gt;Maintainance&lt;/span&gt;&lt;/li&gt;&lt;li&gt;&lt;span&gt;Landing&lt;/span&gt;&lt;/li&gt;&lt;/ul&gt;" style="text;strokeColor=none;fillColor=none;html=1;whiteSpace=wrap;verticalAlign=middle;overflow=hidden;" vertex="1" parent="6">
                    <mxGeometry x="5" y="30" width="195" height="390" as="geometry"/>
                </mxCell>
                <mxCell id="8" value="PBS" style="swimlane;gradientColor=none;" vertex="1" parent="1">
                    <mxGeometry x="600" y="470" width="200" height="200" as="geometry"/>
                </mxCell>
                <mxCell id="9" value="&lt;div&gt;&lt;br&gt;&lt;/div&gt;&lt;ul&gt;&lt;li&gt;&lt;span&gt;Analysis&lt;/span&gt;&lt;/li&gt;&lt;li&gt;&lt;span&gt;Scripts&lt;/span&gt;&lt;/li&gt;&lt;li&gt;&lt;span&gt;Strategy&lt;/span&gt;&lt;/li&gt;&lt;li&gt;&lt;span&gt;Alerts&lt;/span&gt;&lt;/li&gt;&lt;li&gt;&lt;span&gt;Parcels&lt;/span&gt;&lt;/li&gt;&lt;li&gt;&lt;span&gt;Schema&lt;/span&gt;&lt;/li&gt;&lt;li&gt;&lt;span&gt;Signals&lt;/span&gt;&lt;/li&gt;&lt;/ul&gt;" style="text;strokeColor=none;fillColor=none;html=1;whiteSpace=wrap;verticalAlign=middle;overflow=hidden;" vertex="1" parent="8">
                    <mxGeometry x="5" y="30" width="185" height="160" as="geometry"/>
                </mxCell>
            </root>
        </mxGraphModel>
    </diagram>
</mxfile>